<svg width="16" height="16" viewBox="0 0 12 12" xmlns="http://www.w3.org/2000/svg"><path d="m8.246 8.114-.42-.28h-3.65l-.422.28Zm-.561-.561v-.14l-.562-.281H4.877l-.561.28v.14Zm-.393-.618.674.337v.28l.842.562v.842H3.193v-.842l.842-.561v-.281l.674-.337q-.068-.017-.253-.124-.747-.398-1.145-1.14-.399-.74-.399-1.544 0-.803.399-1.544.398-.747 1.14-1.145.746-.399 1.55-.399.802 0 1.544.399.746.398 1.145 1.145.399.741.399 1.544T8.69 5.672q-.399.74-1.14 1.14-.19.106-.258.123Zm-.416-1.539q.079.079.14.18.018.034.018.067 0 .073-.079.152l-.079.079.079.078.87-.87-.078-.079-.079.079q-.079.079-.152.079-.033 0-.067-.023-.101-.056-.18-.135l-.87-.876.87-.876q.079-.078.18-.14.034-.017.067-.017.073 0 .152.079l.079.078.078-.078-.87-.87-.079.078.079.079q.079.078.079.151 0 .034-.017.068-.062.1-.14.18L6 3.728l-.876-.87q-.078-.08-.134-.18-.023-.034-.023-.068 0-.073.079-.151l.078-.079-.078-.079-.87.87.078.08.079-.08q.078-.078.151-.078.034 0 .068.017.1.062.18.14l.87.876-.87.876q-.08.079-.18.135-.034.023-.068.023-.073 0-.151-.079l-.079-.079-.079.079.87.87.08-.078-.08-.079q-.078-.079-.078-.152 0-.033.023-.067.056-.101.134-.18L6 4.526Z" style="font-size:11.5px;line-height:0;font-family:Quivira;-inkscape-font-specification:Quivira;stroke-width:.15;stroke-linecap:square;stroke-linejoin:bevel;paint-order:markers stroke fill"/></svg>